# xmcd
#
# Track frame offsets: 
#        150
#        16045
#        38242
#        52640
#        69422
#        82790
#        98402
#        114660
#        127892
#        141420
#        151775
#        165050
#        179982
#
# Disc length: 2615 seconds
#
# Revision: 6
# Processed by: cddbd v1.5.1PL0 Copyright (c) Steve Scherf et al.
# Submitted via: ExactAudioCopy v0.95a5
#
DISCID=8f0a350d
DTITLE=The Kinleys - II
DYEAR=2000
DGENRE=Country
TTITLE0=She Ain't The Girl For You
TTITLE1=I'm In
TTITLE2=You're Still Here
TTITLE3=If Ever I Needed You
TTITLE4=That's Gonna Mess You Up
TTITLE5=When The Blues And My Baby Collide
TTITLE6=Me Too
TTITLE7=Lovers
TTITLE8=I'm Me With You
TTITLE9=Yeah, Yeah, Yeah
TTITLE10=Here
TTITLE11=I Need You Now
TTITLE12=Somebody's Out There Watching
EXTD=YEAR: 2000
EXTT0=
EXTT1=
EXTT2=
EXTT3=
EXTT4=
EXTT5=
EXTT6=
EXTT7=
EXTT8=
EXTT9=
EXTT10=
EXTT11=
EXTT12=
PLAYORDER=
